<svg width="220" height="80" viewBox="0 0 220 80" fill="none" xmlns="http://www.w3.org/2000/svg">
  <!-- Icono: hoja de plátano estilizada -->
  <g transform="translate(8, 16)">
    <!-- Hoja de plátano (forma alargada y estilizada) -->
    <path d="M20 4C16 4 12 6 10 10C8 14 8 18 10 22C12 26 16 28 20 30C24 28 28 26 30 22C32 18 32 14 30 10C28 6 24 4 20 4Z" fill="white" opacity="0.95"/>
    <!-- Línea central (nervadura) -->
    <line x1="20" y1="4" x2="20" y2="30" stroke="white" stroke-width="1.5" opacity="0.8" stroke-linecap="round"/>
    <!-- Líneas laterales (nervaduras secundarias) -->
    <line x1="16" y1="12" x2="14" y2="16" stroke="white" stroke-width="1" opacity="0.6" stroke-linecap="round"/>
    <line x1="24" y1="12" x2="26" y2="16" stroke="white" stroke-width="1" opacity="0.6" stroke-linecap="round"/>
    <line x1="16" y1="20" x2="14" y2="24" stroke="white" stroke-width="1" opacity="0.6" stroke-linecap="round"/>
    <line x1="24" y1="20" x2="26" y2="24" stroke="white" stroke-width="1" opacity="0.6" stroke-linecap="round"/>
  </g>
  
  <!-- Logo Oviler más grande -->
  <text x="52" y="58" font-family="'Inter', system-ui, -apple-system, sans-serif" font-size="56" font-weight="900" fill="white" letter-spacing="0.02em">
    Oviler
  </text>
</svg>
